<?xml version="1.0" encoding="iso-8859-1"?>
<!-- Generator: Adobe Illustrator 19.0.0, SVG Export Plug-In . SVG Version: 6.00 Build 0)  -->
<svg version="1.1" id="Capa_1" xmlns="http://www.w3.org/2000/svg" xmlns:xlink="http://www.w3.org/1999/xlink" x="0px" y="0px"
	 viewBox="0 0 384.864 384.864" style="enable-background:new 0 0 384.864 384.864;" xml:space="preserve">
<g>
	<path id="Vintage_Luxury_Arrow_Right" d="M381.318,183.865c-0.132-0.132-83.575-84.128-83.575-84.128
		c-2.442-2.442-5.654-3.585-8.842-3.501c-0.096,0-0.18-0.06-0.277-0.06H11.928c-10.587,0-15.88,13.342-8.481,20.776l75.093,75.731
		L4.324,267.536c-8,7.423-4.439,21.149,10.142,21.125h274.05c3.344,0.217,6.749-0.842,9.311-3.417l83.49-84.2
		C386.046,196.304,386.046,188.605,381.318,183.865z M284.221,264.516l-242.856,0.072l62.678-63.207
		c2.394-2.406,3.549-5.558,3.525-8.71c0.036-3.152-1.131-6.304-3.525-8.71l-63.195-63.725h243.06l71.689,72.302L284.221,264.516z"/>
	<g>
	</g>
	<g>
	</g>
	<g>
	</g>
	<g>
	</g>
	<g>
	</g>
	<g>
	</g>
</g>
<g>
</g>
<g>
</g>
<g>
</g>
<g>
</g>
<g>
</g>
<g>
</g>
<g>
</g>
<g>
</g>
<g>
</g>
<g>
</g>
<g>
</g>
<g>
</g>
<g>
</g>
<g>
</g>
<g>
</g>
</svg>
