<?xml version="1.0" encoding="iso-8859-1"?>
<!-- Generator: Adobe Illustrator 16.0.0, SVG Export Plug-In . SVG Version: 6.00 Build 0)  -->
<!DOCTYPE svg PUBLIC "-//W3C//DTD SVG 1.1//EN" "http://www.w3.org/Graphics/SVG/1.1/DTD/svg11.dtd">
<svg version="1.1" id="Capa_1" xmlns="http://www.w3.org/2000/svg" xmlns:xlink="http://www.w3.org/1999/xlink" x="0px" y="0px"
	 width="46.036px" height="46.036px" viewBox="0 0 46.036 46.036" style="enable-background:new 0 0 46.036 46.036;"
	 xml:space="preserve">
<g>
	<g>
		<path d="M20.773,25.256v-0.432c0-5.887,4.777-10.644,10.665-10.644h11.487v-3.207c0-0.703-0.569-1.273-1.272-1.273H7.998
			c-1.267,0-2.293-1.036-2.293-2.303c0-1.266,1.027-2.302,2.293-2.302h33.713c0.67,0,1.214-0.544,1.214-1.214V2.778
			c0-0.606-0.489-1.041-1.096-1.041H4.271C1.896,1.737,0,3.604,0,5.979v34.016c0,2.375,1.896,4.305,4.271,4.305h34.357
			c2.375,0,4.297-1.93,4.297-4.305v-4.033H31.438C25.55,35.959,20.773,31.144,20.773,25.256z" fill="#147535"/>
		<path d="M43.189,17.541H31.438c-3.998,0-7.18,3.288-7.18,7.286v0.43c0,3.998,3.182,7.219,7.18,7.219h11.752
			c1.545,0,2.847-1.232,2.847-2.775v-9.315C46.036,18.84,44.734,17.541,43.189,17.541z M32.083,28.195
			c-1.741,0-3.153-1.411-3.153-3.153c0-1.74,1.412-3.152,3.153-3.152s3.153,1.412,3.153,3.152
			C35.236,26.784,33.824,28.195,32.083,28.195z" fill="#147535"/>
	</g>
</g>
<g>
</g>
<g>
</g>
<g>
</g>
<g>
</g>
<g>
</g>
<g>
</g>
<g>
</g>
<g>
</g>
<g>
</g>
<g>
</g>
<g>
</g>
<g>
</g>
<g>
</g>
<g>
</g>
<g>
</g>
</svg>
